<?xml version="1.0" encoding="UTF-8" standalone="no"?>
<!DOCTYPE svg PUBLIC "-//W3C//DTD SVG 1.1//EN" "http://www.w3.org/Graphics/SVG/1.1/DTD/svg11.dtd">
<svg width="100%" height="100%" viewBox="0 0 3200 2628" version="1.1" xmlns="http://www.w3.org/2000/svg" xmlns:xlink="http://www.w3.org/1999/xlink" xml:space="preserve" xmlns:serif="http://www.serif.com/" style="fill-rule:evenodd;clip-rule:evenodd;stroke-miterlimit:1.5;">
    <g transform="matrix(1,0,0,1,-23088.8,-4603.24)">
        <g transform="matrix(1.22484,0,0,1,9582.62,-410.28)">
            <g transform="matrix(1,0,0,1,2408.28,0)">
                <g transform="matrix(0.816434,6.93889e-18,-5.66515e-18,0.631579,2494.02,2883.15)">
                    <ellipse cx="9101.38" cy="6919" rx="1599.7" ry="613.548" style="fill:rgb(212,208,185);"/>
                    <clipPath id="_clip1">
                        <ellipse cx="9101.38" cy="6919" rx="1599.7" ry="613.548"/>
                    </clipPath>
                    <g clip-path="url(#_clip1)">
                        <g transform="matrix(0.401609,-0.0442804,0.0169163,0.38463,5384.1,4660.76)">
                            <ellipse cx="9101.38" cy="6919" rx="1599.7" ry="613.548" style="fill:rgb(185,183,168);"/>
                        </g>
                    </g>
                </g>
                <g id="coffre-Content" serif:id="coffre Content" transform="matrix(-0.657355,0.0280053,0.0228658,0.805202,15922.5,2242.26)">
                    <g id="jambe-gauche" serif:id="jambe gauche" transform="matrix(0.979759,-0.200183,0.200183,0.979759,-4646.72,2909.43)">
                        <path d="M13588.3,4961.92C13577.8,5162.78 13736.8,5242.27 13719.4,5907.17" style="fill:none;stroke:black;stroke-width:64.65px;"/>
                    </g>
                    <g id="jambe-droite" serif:id="jambe droite" transform="matrix(0.977847,0.209322,-0.209322,0.977847,-3448.47,-2704.2)">
                        <path d="M13730.4,4720.26C13730.4,4720.26 13377.5,5397.6 13501.5,5886.17" style="fill:none;stroke:black;stroke-width:64.65px;"/>
                    </g>
                    <g id="bras-droit" serif:id="bras droit" transform="matrix(1,-2.77556e-17,2.46519e-32,1,-4129.96,410.28)">
                        <path d="M12584.4,3882.53C12584.4,3882.53 12233.4,4451.88 11814.6,4048.85" style="fill:none;stroke:black;stroke-width:64.65px;"/>
                    </g>
                    <g id="face" transform="matrix(1.12982,0,0,1,-5934.19,410.28)">
                        <path d="M13898.2,2975.93C13468.6,2962.62 13049.7,2999.93 12644.2,3100.57C12593.3,3684.7 12603.8,4236 12644.2,4771.28C13054.9,4873.43 13473,4922.32 13898.2,4921.36C13947.6,4283.04 13954.4,3635.96 13898.2,2975.93Z" style="fill:rgb(147,147,147);"/>
                    </g>
                    <g id="coté" transform="matrix(1.12982,1.11022e-16,1.11022e-16,1,-4517.38,410.28)">
                        <path d="M13114.7,3075.13C13056.7,3022.53 12856.8,2997.97 12644.2,2975.93C12678.9,3626.19 12677,4274.57 12644.2,4921.36C12852.6,4855.24 13020,4780.32 13114.7,4689.89C13152.6,4151.64 13158.4,3613.39 13114.7,3075.13Z" style="fill:rgb(129,130,130);"/>
                        <clipPath id="_clip2">
                            <path d="M13114.7,3075.13C13056.7,3022.53 12856.8,2997.97 12644.2,2975.93C12678.9,3626.19 12677,4274.57 12644.2,4921.36C12852.6,4855.24 13020,4780.32 13114.7,4689.89C13152.6,4151.64 13158.4,3613.39 13114.7,3075.13Z"/>
                        </clipPath>
                        <g clip-path="url(#_clip2)">
                            <g transform="matrix(0.885099,-9.82657e-17,-9.82657e-17,1,342.902,-91.571)">
                                <path d="M13146.8,4988.72C13139.9,4954 14049,5071.13 14810.3,4226.08C15597.3,3352.38 14590.5,5092.5 14590.5,5092.5L13146.8,4988.72Z" style="fill:rgb(121,121,121);"/>
                            </g>
                        </g>
                    </g>
                    <g id="bras-gauche" serif:id="bras gauche" transform="matrix(1,-2.77556e-17,2.46519e-32,1,-4129.96,410.28)">
                        <path d="M14181.3,3707.02C14290,3871.59 14370.5,4707.15 14250.7,4909.1" style="fill:none;stroke:black;stroke-width:64.65px;"/>
                    </g>
                    <g transform="matrix(-1.2405,0.0431451,0.0431477,1.24042,39660.2,-3654.59)">
                        <path d="M24449,5460.99C24449,5460.99 24448.6,5378.14 24529.3,5382.14" style="fill:none;stroke:black;stroke-width:11.51px;"/>
                    </g>
                    <g transform="matrix(-0.0643069,1.23951,1.23958,0.0643031,3364.41,-26546.3)">
                        <path d="M24449,5460.99C24449,5460.99 24448.6,5378.14 24529.3,5382.14" style="fill:none;stroke:black;stroke-width:11.51px;"/>
                    </g>
                    <g id="billets" transform="matrix(1.02133,0,0,0.799281,-223.739,1036.95)">
                        <g transform="matrix(-0.761258,-0.797138,0.420877,-0.915158,10464.9,11279.8)">
                            <rect x="4213.15" y="3793.28" width="459.485" height="218.465" style="fill:rgb(127,202,193);"/>
                            <clipPath id="_clip3">
                                <rect x="4213.15" y="3793.28" width="459.485" height="218.465"/>
                            </clipPath>
                            <g clip-path="url(#_clip3)">
                                <g transform="matrix(1.17297,0,0,1.17297,-732.919,-672.387)">
                                    <circle cx="4216.69" cy="3807.14" r="59.611" style="fill:rgb(31,157,141);"/>
                                </g>
                                <g transform="matrix(1.17297,0,0,1.17297,-273.433,-672.387)">
                                    <circle cx="4216.69" cy="3807.14" r="59.611" style="fill:rgb(31,157,141);"/>
                                </g>
                                <g transform="matrix(1.17297,0,0,1.17297,-273.433,-453.922)">
                                    <circle cx="4216.69" cy="3807.14" r="59.611" style="fill:rgb(31,157,141);"/>
                                </g>
                                <g transform="matrix(1.17297,0,0,1.17297,-732.919,-453.922)">
                                    <circle cx="4216.69" cy="3807.14" r="59.611" style="fill:rgb(31,157,141);"/>
                                </g>
                                <g transform="matrix(1,0,0,1,-58.5592,-34.9608)">
                                    <circle cx="4501.45" cy="3937.47" r="74.272" style="fill:rgb(31,157,141);"/>
                                    <clipPath id="_clip4">
                                        <circle cx="4501.45" cy="3937.47" r="74.272"/>
                                    </clipPath>
                                    <g clip-path="url(#_clip4)">
                                        <g transform="matrix(0.833406,0,0,0.826464,749.916,683.293)">
                                            <circle cx="4501.45" cy="3937.47" r="74.272" style="fill:rgb(127,202,193);"/>
                                        </g>
                                    </g>
                                </g>
                                <path d="M4672.64,3793.28L4213.15,3793.28L4213.15,4011.75L4672.64,4011.75L4672.64,3793.28ZM4653.61,3812.3L4653.61,3992.73C4653.61,3992.73 4232.17,3992.73 4232.17,3992.73C4232.17,3992.73 4232.17,3812.3 4232.17,3812.3C4316.63,3812.3 4653.61,3812.3 4653.61,3812.3L4653.61,3812.3Z" style="fill:rgb(31,157,141);"/>
                            </g>
                        </g>
                        <g transform="matrix(0.819614,-0.427597,0.551078,0.971834,3681.71,2637.89)">
                            <rect x="4213.15" y="3793.28" width="459.485" height="218.465" style="fill:rgb(127,202,193);"/>
                            <clipPath id="_clip5">
                                <rect x="4213.15" y="3793.28" width="459.485" height="218.465"/>
                            </clipPath>
                            <g clip-path="url(#_clip5)">
                                <g transform="matrix(1.17297,0,0,1.17297,-732.919,-672.387)">
                                    <circle cx="4216.69" cy="3807.14" r="59.611" style="fill:rgb(31,157,141);"/>
                                </g>
                                <g transform="matrix(1.17297,0,0,1.17297,-273.433,-672.387)">
                                    <circle cx="4216.69" cy="3807.14" r="59.611" style="fill:rgb(31,157,141);"/>
                                </g>
                                <g transform="matrix(1.17297,0,0,1.17297,-273.433,-453.922)">
                                    <circle cx="4216.69" cy="3807.14" r="59.611" style="fill:rgb(31,157,141);"/>
                                </g>
                                <g transform="matrix(1.17297,0,0,1.17297,-732.919,-453.922)">
                                    <circle cx="4216.69" cy="3807.14" r="59.611" style="fill:rgb(31,157,141);"/>
                                </g>
                                <g transform="matrix(1,0,0,1,-58.5592,-34.9608)">
                                    <circle cx="4501.45" cy="3937.47" r="74.272" style="fill:rgb(31,157,141);"/>
                                    <clipPath id="_clip6">
                                        <circle cx="4501.45" cy="3937.47" r="74.272"/>
                                    </clipPath>
                                    <g clip-path="url(#_clip6)">
                                        <g transform="matrix(0.833406,0,0,0.826464,749.916,683.293)">
                                            <circle cx="4501.45" cy="3937.47" r="74.272" style="fill:rgb(127,202,193);"/>
                                        </g>
                                    </g>
                                </g>
                                <path d="M4672.64,3793.28L4213.15,3793.28L4213.15,4011.75L4672.64,4011.75L4672.64,3793.28ZM4653.61,3812.3L4653.61,3992.73C4653.61,3992.73 4232.17,3992.73 4232.17,3992.73C4232.17,3992.73 4232.17,3812.3 4232.17,3812.3C4316.63,3812.3 4653.61,3812.3 4653.61,3812.3L4653.61,3812.3Z" style="fill:rgb(31,157,141);"/>
                            </g>
                        </g>
                        <g transform="matrix(0.961311,-0.298022,0.30368,0.979563,3242.61,1958.07)">
                            <rect x="4213.15" y="3793.28" width="459.485" height="218.465" style="fill:rgb(127,202,193);"/>
                            <clipPath id="_clip7">
                                <rect x="4213.15" y="3793.28" width="459.485" height="218.465"/>
                            </clipPath>
                            <g clip-path="url(#_clip7)">
                                <g transform="matrix(1.17297,0,0,1.17297,-732.919,-672.387)">
                                    <circle cx="4216.69" cy="3807.14" r="59.611" style="fill:rgb(31,157,141);"/>
                                </g>
                                <g transform="matrix(1.17297,0,0,1.17297,-273.433,-672.387)">
                                    <circle cx="4216.69" cy="3807.14" r="59.611" style="fill:rgb(31,157,141);"/>
                                </g>
                                <g transform="matrix(1.17297,0,0,1.17297,-273.433,-453.922)">
                                    <circle cx="4216.69" cy="3807.14" r="59.611" style="fill:rgb(31,157,141);"/>
                                </g>
                                <g transform="matrix(1.17297,0,0,1.17297,-732.919,-453.922)">
                                    <circle cx="4216.69" cy="3807.14" r="59.611" style="fill:rgb(31,157,141);"/>
                                </g>
                                <g transform="matrix(1,0,0,1,-58.5592,-34.9608)">
                                    <circle cx="4501.45" cy="3937.47" r="74.272" style="fill:rgb(31,157,141);"/>
                                    <clipPath id="_clip8">
                                        <circle cx="4501.45" cy="3937.47" r="74.272"/>
                                    </clipPath>
                                    <g clip-path="url(#_clip8)">
                                        <g transform="matrix(0.833406,0,0,0.826464,749.916,683.293)">
                                            <circle cx="4501.45" cy="3937.47" r="74.272" style="fill:rgb(127,202,193);"/>
                                        </g>
                                    </g>
                                </g>
                                <path d="M4672.64,3793.28L4213.15,3793.28L4213.15,4011.75L4672.64,4011.75L4672.64,3793.28ZM4653.61,3812.3L4653.61,3992.73C4653.61,3992.73 4232.17,3992.73 4232.17,3992.73C4232.17,3992.73 4232.17,3812.3 4232.17,3812.3C4316.63,3812.3 4653.61,3812.3 4653.61,3812.3L4653.61,3812.3Z" style="fill:rgb(31,157,141);"/>
                            </g>
                        </g>
                        <g transform="matrix(-0.619865,-0.792908,0.807962,-0.631634,8623.67,10081.3)">
                            <rect x="4213.15" y="3793.28" width="459.485" height="218.465" style="fill:rgb(127,202,193);"/>
                            <clipPath id="_clip9">
                                <rect x="4213.15" y="3793.28" width="459.485" height="218.465"/>
                            </clipPath>
                            <g clip-path="url(#_clip9)">
                                <g transform="matrix(1.17297,0,0,1.17297,-732.919,-672.387)">
                                    <circle cx="4216.69" cy="3807.14" r="59.611" style="fill:rgb(31,157,141);"/>
                                </g>
                                <g transform="matrix(1.17297,0,0,1.17297,-273.433,-672.387)">
                                    <circle cx="4216.69" cy="3807.14" r="59.611" style="fill:rgb(31,157,141);"/>
                                </g>
                                <g transform="matrix(1.17297,0,0,1.17297,-273.433,-453.922)">
                                    <circle cx="4216.69" cy="3807.14" r="59.611" style="fill:rgb(31,157,141);"/>
                                </g>
                                <g transform="matrix(1.17297,0,0,1.17297,-732.919,-453.922)">
                                    <circle cx="4216.69" cy="3807.14" r="59.611" style="fill:rgb(31,157,141);"/>
                                </g>
                                <g transform="matrix(1,0,0,1,-58.5592,-34.9608)">
                                    <circle cx="4501.45" cy="3937.47" r="74.272" style="fill:rgb(31,157,141);"/>
                                    <clipPath id="_clip10">
                                        <circle cx="4501.45" cy="3937.47" r="74.272"/>
                                    </clipPath>
                                    <g clip-path="url(#_clip10)">
                                        <g transform="matrix(0.833406,0,0,0.826464,749.916,683.293)">
                                            <circle cx="4501.45" cy="3937.47" r="74.272" style="fill:rgb(127,202,193);"/>
                                        </g>
                                    </g>
                                </g>
                                <path d="M4672.64,3793.28L4213.15,3793.28L4213.15,4011.75L4672.64,4011.75L4672.64,3793.28ZM4653.61,3812.3L4653.61,3992.73C4653.61,3992.73 4232.17,3992.73 4232.17,3992.73C4232.17,3992.73 4232.17,3812.3 4232.17,3812.3C4316.63,3812.3 4653.61,3812.3 4653.61,3812.3L4653.61,3812.3Z" style="fill:rgb(31,157,141);"/>
                            </g>
                        </g>
                        <g transform="matrix(-0.619865,-0.792908,0.807962,-0.631634,8710.45,10081.3)">
                            <rect x="4213.15" y="3793.28" width="459.485" height="218.465" style="fill:rgb(127,202,193);"/>
                            <clipPath id="_clip11">
                                <rect x="4213.15" y="3793.28" width="459.485" height="218.465"/>
                            </clipPath>
                            <g clip-path="url(#_clip11)">
                                <g transform="matrix(1.17297,0,0,1.17297,-732.919,-672.387)">
                                    <circle cx="4216.69" cy="3807.14" r="59.611" style="fill:rgb(31,157,141);"/>
                                </g>
                                <g transform="matrix(1.17297,0,0,1.17297,-273.433,-672.387)">
                                    <circle cx="4216.69" cy="3807.14" r="59.611" style="fill:rgb(31,157,141);"/>
                                </g>
                                <g transform="matrix(1.17297,0,0,1.17297,-273.433,-453.922)">
                                    <circle cx="4216.69" cy="3807.14" r="59.611" style="fill:rgb(31,157,141);"/>
                                </g>
                                <g transform="matrix(1.17297,0,0,1.17297,-732.919,-453.922)">
                                    <circle cx="4216.69" cy="3807.14" r="59.611" style="fill:rgb(31,157,141);"/>
                                </g>
                                <g transform="matrix(1,0,0,1,-58.5592,-34.9608)">
                                    <circle cx="4501.45" cy="3937.47" r="74.272" style="fill:rgb(31,157,141);"/>
                                    <clipPath id="_clip12">
                                        <circle cx="4501.45" cy="3937.47" r="74.272"/>
                                    </clipPath>
                                    <g clip-path="url(#_clip12)">
                                        <g transform="matrix(0.833406,0,0,0.826464,749.916,683.293)">
                                            <circle cx="4501.45" cy="3937.47" r="74.272" style="fill:rgb(127,202,193);"/>
                                        </g>
                                    </g>
                                </g>
                                <path d="M4672.64,3793.28L4213.15,3793.28L4213.15,4011.75L4672.64,4011.75L4672.64,3793.28ZM4653.61,3812.3L4653.61,3992.73C4653.61,3992.73 4232.17,3992.73 4232.17,3992.73C4232.17,3992.73 4232.17,3812.3 4232.17,3812.3C4316.63,3812.3 4653.61,3812.3 4653.61,3812.3L4653.61,3812.3Z" style="fill:rgb(31,157,141);"/>
                            </g>
                        </g>
                        <g transform="matrix(0.112683,-1.00012,1.01911,0.114822,4769.02,8097.71)">
                            <rect x="4213.15" y="3793.28" width="459.485" height="218.465" style="fill:rgb(127,202,193);"/>
                            <clipPath id="_clip13">
                                <rect x="4213.15" y="3793.28" width="459.485" height="218.465"/>
                            </clipPath>
                            <g clip-path="url(#_clip13)">
                                <g transform="matrix(1.17297,0,0,1.17297,-732.919,-672.387)">
                                    <circle cx="4216.69" cy="3807.14" r="59.611" style="fill:rgb(31,157,141);"/>
                                </g>
                                <g transform="matrix(1.17297,0,0,1.17297,-273.433,-672.387)">
                                    <circle cx="4216.69" cy="3807.14" r="59.611" style="fill:rgb(31,157,141);"/>
                                </g>
                                <g transform="matrix(1.17297,0,0,1.17297,-273.433,-453.922)">
                                    <circle cx="4216.69" cy="3807.14" r="59.611" style="fill:rgb(31,157,141);"/>
                                </g>
                                <g transform="matrix(1.17297,0,0,1.17297,-732.919,-453.922)">
                                    <circle cx="4216.69" cy="3807.14" r="59.611" style="fill:rgb(31,157,141);"/>
                                </g>
                                <g transform="matrix(1,0,0,1,-58.5592,-34.9608)">
                                    <circle cx="4501.45" cy="3937.47" r="74.272" style="fill:rgb(31,157,141);"/>
                                    <clipPath id="_clip14">
                                        <circle cx="4501.45" cy="3937.47" r="74.272"/>
                                    </clipPath>
                                    <g clip-path="url(#_clip14)">
                                        <g transform="matrix(0.833406,0,0,0.826464,749.916,683.293)">
                                            <circle cx="4501.45" cy="3937.47" r="74.272" style="fill:rgb(127,202,193);"/>
                                        </g>
                                    </g>
                                </g>
                                <path d="M4672.64,3793.28L4213.15,3793.28L4213.15,4011.75L4672.64,4011.75L4672.64,3793.28ZM4653.61,3812.3L4653.61,3992.73C4653.61,3992.73 4232.17,3992.73 4232.17,3992.73C4232.17,3992.73 4232.17,3812.3 4232.17,3812.3C4316.63,3812.3 4653.61,3812.3 4653.61,3812.3L4653.61,3812.3Z" style="fill:rgb(31,157,141);"/>
                            </g>
                        </g>
                        <g transform="matrix(0.817683,-0.586798,0.597939,0.833207,3152.72,4428.33)">
                            <rect x="4213.15" y="3793.28" width="459.485" height="218.465" style="fill:rgb(127,202,193);"/>
                            <clipPath id="_clip15">
                                <rect x="4213.15" y="3793.28" width="459.485" height="218.465"/>
                            </clipPath>
                            <g clip-path="url(#_clip15)">
                                <g transform="matrix(1.17297,0,0,1.17297,-732.919,-672.387)">
                                    <circle cx="4216.69" cy="3807.14" r="59.611" style="fill:rgb(31,157,141);"/>
                                </g>
                                <g transform="matrix(1.17297,0,0,1.17297,-273.433,-672.387)">
                                    <circle cx="4216.69" cy="3807.14" r="59.611" style="fill:rgb(31,157,141);"/>
                                </g>
                                <g transform="matrix(1.17297,0,0,1.17297,-273.433,-453.922)">
                                    <circle cx="4216.69" cy="3807.14" r="59.611" style="fill:rgb(31,157,141);"/>
                                </g>
                                <g transform="matrix(1.17297,0,0,1.17297,-732.919,-453.922)">
                                    <circle cx="4216.69" cy="3807.14" r="59.611" style="fill:rgb(31,157,141);"/>
                                </g>
                                <g transform="matrix(1,0,0,1,-58.5592,-34.9608)">
                                    <circle cx="4501.45" cy="3937.47" r="74.272" style="fill:rgb(31,157,141);"/>
                                    <clipPath id="_clip16">
                                        <circle cx="4501.45" cy="3937.47" r="74.272"/>
                                    </clipPath>
                                    <g clip-path="url(#_clip16)">
                                        <g transform="matrix(0.833406,0,0,0.826464,749.916,683.293)">
                                            <circle cx="4501.45" cy="3937.47" r="74.272" style="fill:rgb(127,202,193);"/>
                                        </g>
                                    </g>
                                </g>
                                <path d="M4672.64,3793.28L4213.15,3793.28L4213.15,4011.75L4672.64,4011.75L4672.64,3793.28ZM4653.61,3812.3L4653.61,3992.73C4653.61,3992.73 4232.17,3992.73 4232.17,3992.73C4232.17,3992.73 4232.17,3812.3 4232.17,3812.3C4316.63,3812.3 4653.61,3812.3 4653.61,3812.3L4653.61,3812.3Z" style="fill:rgb(31,157,141);"/>
                            </g>
                        </g>
                    </g>
                    <g id="porte" transform="matrix(1.02133,0,0,0.799281,-223.739,1036.95)">
                        <g transform="matrix(0.714702,0,0,0.632582,-425.125,2007.34)">
                            <path d="M13898.2,2986.55C13460,3393.89 13030,3344.61 12644.2,3067.44C12596.4,3628.65 12589.7,4085.22 12639.2,4660.16C13072.7,5097.22 13509.6,5096.28 13913.4,4787.93C13965.5,4152.29 13961.5,3642.78 13898.2,2986.55Z" style="fill:rgb(109,109,109);"/>
                            <clipPath id="_clip17">
                                <path d="M13898.2,2986.55C13460,3393.89 13030,3344.61 12644.2,3067.44C12596.4,3628.65 12589.7,4085.22 12639.2,4660.16C13072.7,5097.22 13509.6,5096.28 13913.4,4787.93C13965.5,4152.29 13961.5,3642.78 13898.2,2986.55Z"/>
                            </clipPath>
                            <g clip-path="url(#_clip17)">
                                <g transform="matrix(1.36997,0,0,1.97781,-4756.57,-4412.68)">
                                    <path d="M12106.8,4756.22C12093,4493.38 13544.4,4864.11 13992.2,4226.08C14442.3,3584.96 13970.8,5186.91 13970.8,5186.91L12106.8,4756.22Z" style="fill:rgb(92,92,92);"/>
                                </g>
                            </g>
                        </g>
                        <g transform="matrix(1,0,-3.46945e-18,1,-3180.85,370.575)">
                            <path d="M12757.7,3721.28C12757.7,3708.64 12749.6,3698.39 12739.8,3698.39L12703.9,3698.39C12694,3698.39 12686,3708.64 12686,3721.28L12686,3908.87C12686,3921.51 12694,3931.76 12703.9,3931.76L12739.8,3931.76C12749.6,3931.76 12757.7,3921.51 12757.7,3908.87L12757.7,3721.28Z" style="fill:rgb(129,130,130);"/>
                        </g>
                        <g transform="matrix(1,0,-3.46945e-18,1,-3180.85,958.193)">
                            <path d="M12757.7,3721.28C12757.7,3708.64 12749.6,3698.39 12739.8,3698.39L12703.9,3698.39C12694,3698.39 12686,3708.64 12686,3721.28L12686,3908.87C12686,3921.51 12694,3931.76 12703.9,3931.76L12739.8,3931.76C12749.6,3931.76 12757.7,3921.51 12757.7,3908.87L12757.7,3721.28Z" style="fill:rgb(129,130,130);"/>
                        </g>
                        <g transform="matrix(1,0,-3.46945e-18,1,-4855.07,442.506)">
                            <path d="M13535.8,3831.72C13535.8,3823.68 13530.7,3817.16 13524.4,3817.16L13501.6,3817.16C13495.4,3817.16 13490.3,3823.68 13490.3,3831.72L13490.3,4390.22C13490.3,4398.25 13495.4,4404.78 13501.6,4404.78L13524.4,4404.78C13530.7,4404.78 13535.8,4398.25 13535.8,4390.22L13535.8,3831.72Z" style="fill:rgb(129,130,130);"/>
                        </g>
                        <g transform="matrix(1.48596,2.22045e-16,1.19545e-16,4.05751,-11477.1,-13285.1)">
                            <path d="M13602.1,4345.58C13602.1,4344.78 13600.7,4344.12 13599,4344.12L13565.2,4344.12C13563.5,4344.12 13562.1,4344.78 13562.1,4345.58L13562.1,4348.5C13562.1,4349.3 13563.5,4349.96 13565.2,4349.96L13599,4349.96C13600.7,4349.96 13602.1,4349.3 13602.1,4348.5L13602.1,4345.58Z" style="fill:rgb(129,130,130);"/>
                        </g>
                        <g transform="matrix(1.48596,2.22045e-16,7.73132e-17,4.05751,-11477.7,-12903.8)">
                            <path d="M13602.1,4345.58C13602.1,4344.78 13600.7,4344.12 13599,4344.12L13565.2,4344.12C13563.5,4344.12 13562.1,4344.78 13562.1,4345.58L13562.1,4348.5C13562.1,4349.3 13563.5,4349.96 13565.2,4349.96L13599,4349.96C13600.7,4349.96 13602.1,4349.3 13602.1,4348.5L13602.1,4345.58Z" style="fill:rgb(129,130,130);"/>
                        </g>
                        <g transform="matrix(0.979119,0,-8.68142e-18,1.25113,260.479,-1243.08)">
                            <g transform="matrix(1,0,0,1,-4168.51,401.357)">
                                <circle cx="13132.9" cy="4190.2" r="145.341" style="fill:rgb(121,121,121);"/>
                                <clipPath id="_clip18">
                                    <circle cx="13132.9" cy="4190.2" r="145.341"/>
                                </clipPath>
                                <g clip-path="url(#_clip18)">
                                    <g transform="matrix(0.968232,0.250053,-0.250053,0.968232,1489.34,-3146.71)">
                                        <path d="M13161.8,3990.58C13168.5,3991.79 13124.9,4124.37 13082.3,4139.94C13046.5,4153.06 13133,4199.49 13133,4199.49C13122.7,4186.06 13191.8,4076.91 13257.3,4038.84C13320.7,4001.95 13161.8,3990.58 13161.8,3990.58Z" style="fill:rgb(145,145,145);"/>
                                    </g>
                                    <g transform="matrix(0.791784,-0.596469,0.684915,0.74555,-22.9405,8814.55)">
                                        <path d="M13030.3,4035.94L13015.1,4051.25" style="fill:none;stroke:black;stroke-width:9.86px;"/>
                                    </g>
                                    <g transform="matrix(0.979655,-0.200688,0.251907,1.22968,-651.883,1686.82)">
                                        <path d="M13030.3,4035.94L13010.8,4050.8" style="fill:none;stroke:black;stroke-width:9.11px;"/>
                                    </g>
                                    <g transform="matrix(0.942366,0.334584,-0.419975,1.18287,2623.84,-5082.4)">
                                        <path d="M13030.3,4035.94L13019.6,4056.33" style="fill:none;stroke:black;stroke-width:9.11px;"/>
                                    </g>
                                    <g transform="matrix(0.644685,0.763047,-0.93001,0.801576,8631.28,-9047.76)">
                                        <path d="M13030.3,4035.94L13019.9,4057.02" style="fill:none;stroke:black;stroke-width:9.2px;"/>
                                    </g>
                                    <g transform="matrix(-0.151136,0.988513,-1.2408,-0.189708,20262.7,-7874.02)">
                                        <path d="M13030.3,4035.94L13024.1,4058.43" style="fill:none;stroke:black;stroke-width:9.11px;"/>
                                    </g>
                                    <g transform="matrix(0.632293,-0.774729,0.972453,0.793665,1054.44,11184.5)">
                                        <path d="M13022.7,4037.5L13024.1,4058.43" style="fill:none;stroke:black;stroke-width:9.11px;"/>
                                    </g>
                                </g>
                            </g>
                            <g transform="matrix(0.792115,0,0,0.792115,-1468.58,1290.65)">
                                <circle cx="13132.9" cy="4190.2" r="145.341" style="fill:rgb(121,121,121);"/>
                                <clipPath id="_clip19">
                                    <circle cx="13132.9" cy="4190.2" r="145.341"/>
                                </clipPath>
                                <g clip-path="url(#_clip19)">
                                    <g transform="matrix(1.26244,0,0,1.26244,-3353.98,-1103.49)">
                                        <path d="M13127.7,4096.86C13127.7,4096.86 13010.9,4200.75 12937.3,4208.22C12937.3,4208.22 13002.2,4219.38 13152.2,4121.22" style="fill:rgb(145,145,145);"/>
                                    </g>
                                </g>
                                <path d="M13132.9,4032.51C13220,4032.51 13290.6,4103.17 13290.6,4190.2C13290.6,4277.23 13220,4347.89 13132.9,4347.89C13045.9,4347.89 12975.3,4277.23 12975.3,4190.2C12975.3,4103.17 13045.9,4032.51 13132.9,4032.51ZM13132.9,4044.86C13213.2,4044.86 13278.3,4109.98 13278.3,4190.2C13278.3,4270.42 13213.2,4335.54 13132.9,4335.54C13052.7,4335.54 12987.6,4270.42 12987.6,4190.2C12987.6,4109.98 13052.7,4044.86 13132.9,4044.86Z" style="fill:rgb(135,135,135);"/>
                            </g>
                        </g>
                    </g>
                    <g transform="matrix(1,3.46945e-17,1.38778e-17,1.33612,-5.61927,-1291.18)">
                        <g transform="matrix(1.2181,-4.65355e-17,-4.10973e-17,0.67711,-6901.45,1510.09)">
                            <ellipse cx="12850" cy="3319.51" rx="147.531" ry="230.962" style="fill:rgb(217,217,217);"/>
                            <clipPath id="_clip20">
                                <ellipse cx="12850" cy="3319.51" rx="147.531" ry="230.962"/>
                            </clipPath>
                            <g clip-path="url(#_clip20)">
                                <g transform="matrix(0.959453,-6.93889e-18,0,1,494.511,32.6959)">
                                    <ellipse cx="12914.2" cy="3358.95" rx="64.258" ry="117.211"/>
                                    <clipPath id="_clip21">
                                        <ellipse cx="12914.2" cy="3358.95" rx="64.258" ry="117.211"/>
                                    </clipPath>
                                    <g clip-path="url(#_clip21)">
                                        <ellipse cx="12933.4" cy="3295.54" rx="19.16" ry="23.968" style="fill:rgb(217,217,217);"/>
                                    </g>
                                </g>
                            </g>
                        </g>
                        <g transform="matrix(1.27193,-4.85723e-17,-3.62787e-17,0.706269,-7107.83,1403.15)">
                            <ellipse cx="12850" cy="3319.51" rx="147.531" ry="230.962" style="fill:rgb(217,217,217);"/>
                            <clipPath id="_clip22">
                                <ellipse cx="12850" cy="3319.51" rx="147.531" ry="230.962"/>
                            </clipPath>
                            <g clip-path="url(#_clip22)">
                                <g transform="matrix(0.921897,-6.93889e-18,1.04083e-17,1,985.552,24.7271)">
                                    <ellipse cx="12914.2" cy="3358.95" rx="64.258" ry="117.211"/>
                                    <clipPath id="_clip23">
                                        <ellipse cx="12914.2" cy="3358.95" rx="64.258" ry="117.211"/>
                                    </clipPath>
                                    <g clip-path="url(#_clip23)">
                                        <ellipse cx="12933.4" cy="3295.54" rx="19.16" ry="23.968" style="fill:rgb(217,217,217);"/>
                                    </g>
                                </g>
                            </g>
                        </g>
                    </g>
                    <g transform="matrix(1.17242,0,0,1.24696,-6332.85,-307.213)">
                        <path d="M12691.5,2903.56C12776.8,2802.48 12952.5,2839.23 12998.7,2868.86" style="fill:none;stroke:black;stroke-width:53.48px;"/>
                    </g>
                    <g transform="matrix(1.17242,0,0,1.24696,-5759.83,-263.346)">
                        <path d="M12693.2,2794.2C12767.8,2744.48 12965.6,2744.34 13025.5,2810.94" style="fill:none;stroke:black;stroke-width:53.48px;"/>
                    </g>
                </g>
            </g>
        </g>
    </g>
</svg>
