<?xml version="1.0" encoding="UTF-8" standalone="no"?>
<!DOCTYPE svg PUBLIC "-//W3C//DTD SVG 1.1//EN" "http://www.w3.org/Graphics/SVG/1.1/DTD/svg11.dtd">
<svg width="100%" height="100%" viewBox="0 0 933 300" version="1.1" xmlns="http://www.w3.org/2000/svg" xmlns:xlink="http://www.w3.org/1999/xlink" xml:space="preserve" xmlns:serif="http://www.serif.com/" style="fill-rule:evenodd;clip-rule:evenodd;stroke-linejoin:round;stroke-miterlimit:2;">
    <g transform="matrix(1,0,0,1,-3740.23,-8915.59)">
        <g transform="matrix(1,0,0,1.39434,-934.033,-1451.53)">
            <g transform="matrix(0.765981,0,0,0.717184,2392.17,2338.77)">
                <path d="M4196.68,7180.84C4196.68,7139.57 4152.94,7106.07 4099.06,7106.07L3076.93,7106.07C3023.05,7106.07 2979.31,7139.57 2979.31,7180.84L2979.31,7330.39C2979.31,7371.66 3023.05,7405.17 3076.93,7405.17L4099.06,7405.17C4152.94,7405.17 4196.68,7371.66 4196.68,7330.39L4196.68,7180.84Z" style="fill:rgb(157,31,77);"/>
                <clipPath id="_clip1">
                    <path d="M4196.68,7180.84C4196.68,7139.57 4152.94,7106.07 4099.06,7106.07L3076.93,7106.07C3023.05,7106.07 2979.31,7139.57 2979.31,7180.84L2979.31,7330.39C2979.31,7371.66 3023.05,7405.17 3076.93,7405.17L4099.06,7405.17C4152.94,7405.17 4196.68,7371.66 4196.68,7330.39L4196.68,7180.84Z"/>
                </clipPath>
                <g clip-path="url(#_clip1)">
                    <g transform="matrix(1.30551,0,0,1,-835.551,376.289)">
                        <text x="3137.04px" y="6940px" style="font-family:'LEMONMILK-Bold', 'LEMON MILK';font-weight:700;font-size:154.167px;fill:white;">Non !</text>
                    </g>
                </g>
            </g>
        </g>
    </g>
</svg>
