<?xml version="1.0" encoding="UTF-8" standalone="no"?>
<!DOCTYPE svg PUBLIC "-//W3C//DTD SVG 1.1//EN" "http://www.w3.org/Graphics/SVG/1.1/DTD/svg11.dtd">
<svg width="100%" height="100%" viewBox="0 0 6084 1015" version="1.1" xmlns="http://www.w3.org/2000/svg" xmlns:xlink="http://www.w3.org/1999/xlink" xml:space="preserve" xmlns:serif="http://www.serif.com/" style="fill-rule:evenodd;clip-rule:evenodd;stroke-linejoin:round;stroke-miterlimit:2;">
    <g transform="matrix(1,0,0,1,-885.077,-1241.71)">
        <g transform="matrix(1,0,0,1.39434,-1271.86,-1433.15)">
            <g transform="matrix(0.618712,0,0,0.44373,-934.72,363.082)">
                <rect x="7830.49" y="3752.53" width="1144.63" height="1144.63" style="fill:none;"/>
                <g transform="matrix(1.61896,-1.23475,1.23475,1.61896,-3674.17,3445.06)">
                    <rect x="4213.15" y="3793.28" width="459.485" height="218.465" style="fill:rgb(127,202,193);"/>
                    <clipPath id="_clip1">
                        <rect x="4213.15" y="3793.28" width="459.485" height="218.465"/>
                    </clipPath>
                    <g clip-path="url(#_clip1)">
                        <g transform="matrix(1.17297,0,0,1.17297,-732.919,-672.387)">
                            <circle cx="4216.69" cy="3807.14" r="59.611" style="fill:rgb(31,157,141);"/>
                        </g>
                        <g transform="matrix(1.17297,0,0,1.17297,-273.433,-672.387)">
                            <circle cx="4216.69" cy="3807.14" r="59.611" style="fill:rgb(31,157,141);"/>
                        </g>
                        <g transform="matrix(1.17297,0,0,1.17297,-273.433,-453.922)">
                            <circle cx="4216.69" cy="3807.14" r="59.611" style="fill:rgb(31,157,141);"/>
                        </g>
                        <g transform="matrix(1.17297,0,0,1.17297,-732.919,-453.922)">
                            <circle cx="4216.69" cy="3807.14" r="59.611" style="fill:rgb(31,157,141);"/>
                        </g>
                        <g transform="matrix(1,0,0,1,-58.5592,-34.9608)">
                            <circle cx="4501.45" cy="3937.47" r="74.272" style="fill:rgb(31,157,141);"/>
                            <clipPath id="_clip2">
                                <circle cx="4501.45" cy="3937.47" r="74.272"/>
                            </clipPath>
                            <g clip-path="url(#_clip2)">
                                <g transform="matrix(0.833406,0,0,0.826464,749.916,683.293)">
                                    <circle cx="4501.45" cy="3937.47" r="74.272" style="fill:rgb(127,202,193);"/>
                                </g>
                            </g>
                        </g>
                        <path d="M4672.64,3793.28L4213.15,3793.28L4213.15,4011.75L4672.64,4011.75L4672.64,3793.28ZM4653.61,3812.3L4653.61,3992.73C4653.61,3992.73 4232.17,3992.73 4232.17,3992.73C4232.17,3992.73 4232.17,3812.3 4232.17,3812.3C4316.63,3812.3 4653.61,3812.3 4653.61,3812.3L4653.61,3812.3Z" style="fill:rgb(31,157,141);"/>
                    </g>
                </g>
                <g transform="matrix(1.91799,-0.683341,0.683341,1.91799,-2728.32,17.5347)">
                    <rect x="4213.15" y="3793.28" width="459.485" height="218.465" style="fill:rgb(127,202,193);"/>
                    <clipPath id="_clip3">
                        <rect x="4213.15" y="3793.28" width="459.485" height="218.465"/>
                    </clipPath>
                    <g clip-path="url(#_clip3)">
                        <g transform="matrix(1.17297,0,0,1.17297,-732.919,-672.387)">
                            <circle cx="4216.69" cy="3807.14" r="59.611" style="fill:rgb(31,157,141);"/>
                        </g>
                        <g transform="matrix(1.17297,0,0,1.17297,-273.433,-672.387)">
                            <circle cx="4216.69" cy="3807.14" r="59.611" style="fill:rgb(31,157,141);"/>
                        </g>
                        <g transform="matrix(1.17297,0,0,1.17297,-273.433,-453.922)">
                            <circle cx="4216.69" cy="3807.14" r="59.611" style="fill:rgb(31,157,141);"/>
                        </g>
                        <g transform="matrix(1.17297,0,0,1.17297,-732.919,-453.922)">
                            <circle cx="4216.69" cy="3807.14" r="59.611" style="fill:rgb(31,157,141);"/>
                        </g>
                        <g transform="matrix(1,0,0,1,-58.5592,-34.9608)">
                            <circle cx="4501.45" cy="3937.47" r="74.272" style="fill:rgb(31,157,141);"/>
                            <clipPath id="_clip4">
                                <circle cx="4501.45" cy="3937.47" r="74.272"/>
                            </clipPath>
                            <g clip-path="url(#_clip4)">
                                <g transform="matrix(0.833406,0,0,0.826464,749.916,683.293)">
                                    <circle cx="4501.45" cy="3937.47" r="74.272" style="fill:rgb(127,202,193);"/>
                                </g>
                            </g>
                        </g>
                        <path d="M4672.64,3793.28L4213.15,3793.28L4213.15,4011.75L4672.64,4011.75L4672.64,3793.28ZM4653.61,3812.3L4653.61,3992.73C4653.61,3992.73 4232.17,3992.73 4232.17,3992.73C4232.17,3992.73 4232.17,3812.3 4232.17,3812.3C4316.63,3812.3 4653.61,3812.3 4653.61,3812.3L4653.61,3812.3Z" style="fill:rgb(31,157,141);"/>
                    </g>
                </g>
            </g>
            <g transform="matrix(0.85805,0,0,0.594929,1390.39,1266.16)">
                <path d="M3979.76,1617.56L3849.74,1617.56L3849.74,1662.31L3891.61,1662.31L3891.61,1797.93L3938.01,1797.93L3938.01,1662.31L3979.76,1662.31L3979.76,1617.56Z" style="fill:rgb(31,157,141);fill-rule:nonzero;"/>
                <path d="M4098.33,1797.93L4149.06,1797.93L4067.93,1615.32L4045.98,1615.32L3964.96,1797.93L4015.58,1797.93L4024.45,1776.89L4089.57,1776.89L4098.33,1797.93ZM4039.05,1741.88L4057.01,1699.13L4074.86,1741.88L4039.05,1741.88Z" style="fill:rgb(31,157,141);fill-rule:nonzero;"/>
                <path d="M4312.95,1797.93L4252.91,1705.51L4306.36,1617.56L4253.13,1617.56L4212.67,1684.81L4212.67,1617.56L4166.49,1617.56L4166.49,1797.93L4212.67,1797.93L4212.67,1729.34L4256.81,1797.93L4312.95,1797.93Z" style="fill:rgb(31,157,141);fill-rule:nonzero;"/>
                <path d="M4442.66,1662.08L4442.66,1617.56L4329.63,1617.56L4329.63,1797.93L4442.66,1797.93L4442.66,1753.07L4375.37,1753.07L4375.37,1727.21L4430.76,1727.21L4430.76,1687.27L4375.37,1687.27L4375.37,1662.08L4442.66,1662.08Z" style="fill:rgb(31,157,141);fill-rule:nonzero;"/>
                <path d="M4655.45,1617.56L4525.43,1617.56L4525.43,1662.31L4567.3,1662.31L4567.3,1797.93L4613.69,1797.93L4613.69,1662.31L4655.45,1662.31L4655.45,1617.56Z" style="fill:rgb(31,157,141);fill-rule:nonzero;"/>
                <path d="M4773.27,1617.56L4773.27,1685.26L4721.44,1685.26L4721.44,1617.56L4675.15,1617.56L4675.15,1797.93L4721.44,1797.93L4721.44,1730L4773.27,1730L4773.27,1797.93L4819.45,1797.93L4819.45,1617.56L4773.27,1617.56Z" style="fill:rgb(31,157,141);fill-rule:nonzero;"/>
                <path d="M4962.79,1662.08L4962.79,1617.56L4849.75,1617.56L4849.75,1797.93L4962.79,1797.93L4962.79,1753.07L4895.5,1753.07L4895.5,1727.21L4950.89,1727.21L4950.89,1687.27L4895.5,1687.27L4895.5,1662.08L4962.79,1662.08Z" style="fill:rgb(31,157,141);fill-rule:nonzero;"/>
                <path d="M5224.48,1615.88L5149.62,1721.95L5074.76,1615.88L5056.16,1615.88L5056.16,1797.93L5102.45,1797.93L5102.45,1726.43L5149.51,1794.9L5149.84,1794.9L5196.79,1726.43L5196.79,1797.93L5243.08,1797.93L5243.08,1615.88L5224.48,1615.88Z" style="fill:rgb(31,157,141);fill-rule:nonzero;"/>
                <path d="M5361.43,1802.51C5415.74,1802.51 5457.27,1761.68 5457.27,1707.97C5457.27,1653.8 5415.74,1612.75 5361.54,1612.75C5307.34,1612.75 5265.81,1653.8 5265.81,1707.97C5265.81,1761.68 5307.23,1802.51 5361.43,1802.51ZM5361.54,1756.76C5333.84,1756.76 5312.64,1735.39 5312.64,1707.63C5312.64,1679.77 5333.84,1658.28 5361.54,1658.28C5389.24,1658.28 5410.45,1679.77 5410.45,1707.63C5410.45,1735.39 5389.24,1756.76 5361.54,1756.76Z" style="fill:rgb(31,157,141);fill-rule:nonzero;"/>
                <path d="M5584.29,1617.34L5584.29,1705.28L5494.93,1615.77L5480.01,1615.77L5480.01,1798.04L5526.29,1798.04L5526.29,1709.87L5615.98,1799.72L5630.69,1799.72L5630.69,1617.34L5584.29,1617.34Z" style="fill:rgb(31,157,141);fill-rule:nonzero;"/>
                <path d="M5774.02,1662.08L5774.02,1617.56L5660.99,1617.56L5660.99,1797.93L5774.02,1797.93L5774.02,1753.07L5706.73,1753.07L5706.73,1727.21L5762.12,1727.21L5762.12,1687.27L5706.73,1687.27L5706.73,1662.08L5774.02,1662.08Z" style="fill:rgb(31,157,141);fill-rule:nonzero;"/>
                <path d="M5840.68,1797.93L5886.64,1797.93L5886.64,1720.05L5940.51,1617.56L5887.94,1617.56L5863.71,1669.81L5839.38,1617.56L5786.91,1617.56L5840.68,1720.05L5840.68,1797.93Z" style="fill:rgb(31,157,141);fill-rule:nonzero;"/>
            </g>
            <g transform="matrix(1,0,0,0.717184,1271.86,1027.83)">
                <path d="M6968.95,2228.82L6968.95,2256.18L885.077,2256.18L885.077,2228.82L6968.95,2228.82ZM6968.95,1269.08L885.077,1269.08L885.077,1241.71L6968.95,1241.71L6968.95,1269.08Z" style="fill:rgb(31,157,141);"/>
            </g>
        </g>
    </g>
</svg>
